# xmcd
#
# Track frame offsets: 
#        182
#        11762
#        22760
#        33695
#        46040
#        59345
#        69245
#        81955
#        94532
#        108957
#        121230
#        136295
#        147832
#        160230
#        173950
#        186115
#
# Disc length: 2676 seconds
#
# Revision: 15
# Processed by: cddbd v1.5.2PL0 Copyright (c) Steve Scherf et al.
# Submitted via: ExactAudioCopy v0.99pb5
#
DISCID=ca0a7210
DTITLE=Otis Redding - The Very Best Of Otis Redding
DYEAR=1992
DGENRE=Soul
TTITLE0=These Arms Of Mine
TTITLE1=Pain In My Heart
TTITLE2=That's How Strong My Love Is
TTITLE3=Mr. Pitiful
TTITLE4=I've Been Loving You Too Long (To Stop Now)
TTITLE5=Respect
TTITLE6=I Can't Turn You Loose
TTITLE7=Satisfaction
TTITLE8=My Lover's Prayer
TTITLE9=Fa-Fa-Fa-Fa-Fa-Fa (Sad Song)
TTITLE10=Try A Little Tenderness
TTITLE11=Shake
TTITLE12=The Happy Song (Dum-Dum)
TTITLE13=Tramp
TTITLE14=(Sittin' On) The Dock Of The Bay
TTITLE15=I've Got Dreams To Remember
EXTD=ID3G:   0
EXTT0=
EXTT1=
EXTT2=
EXTT3=
EXTT4=
EXTT5=
EXTT6=
EXTT7=
EXTT8=
EXTT9=
EXTT10=
EXTT11=
EXTT12=
EXTT13=
EXTT14=
EXTT15=
PLAYORDER=
